<?xml version="1.0" encoding="utf-8"?>
<!-- Generator: Adobe Illustrator 23.0.5, SVG Export Plug-In . SVG Version: 6.00 Build 0)  -->
<svg version="1.1" id="Layer_1" xmlns="http://www.w3.org/2000/svg" xmlns:xlink="http://www.w3.org/1999/xlink" x="0px" y="0px"
	 viewBox="0 0 255.12 311.81" style="enable-background:new 0 0 255.12 311.81;" xml:space="preserve">
<style type="text/css">
	.st0{fill:#2BACE2;stroke:#EC7E2E;stroke-width:3;stroke-miterlimit:10;}
	.st1{fill:#EC7E2E;stroke:#2BACE2;stroke-width:3;stroke-miterlimit:10;}
	.st2{fill:#6BBE46;}
</style>
<g>
	<path class="st0" d="M214.14,206.41c-1.45-0.01-12.61,5.5-24.76,12.3c-21.53,11.85-22.18,12.33-23.05,18.27
		c-2.25,15.75-9.05,18.74-41.56,18.41l-24.14-0.25l0.05-4.83l0.05-4.83l23.98,0.25c20.76,0.21,24.47-0.07,27.55-2.61
		c4.87-3.81,4.94-11.22,0-15.29c-3.35-2.77-6.41-2.96-38.28-2.81l-34.77,0.13l-37.53,17.96c-20.71,9.93-37.7,18.45-37.7,18.93
		c-0.01,0.64,7.48,8.61,16.56,17.88c16.57,16.75,16.73,16.91,20.46,14.38c23.19-16.5,26.58-17.43,70.69-17.95
		c19.96-0.28,37.36-1.23,38.66-2.18c1.3-0.79,18.16-12.69,37.46-26.5c21.24-15.23,35.53-26.52,36.03-28.44
		C225.67,212.33,221.22,206.49,214.14,206.41z"/>
	<path class="st1" d="M43.46,104.69c1.45,0,12.51-5.66,24.53-12.61c21.32-12.12,21.96-12.6,22.75-18.55
		c2.04-15.75,8.77-18.82,41.22-18.93l24.09-0.08l0.02,4.82l0.02,4.82l-23.93,0.08c-20.72,0.07-24.41,0.4-27.46,2.98
		c-4.81,3.87-4.78,11.26,0.21,15.26c3.38,2.72,6.43,2.87,38.24,2.28l34.69-0.6l37.21-18.43c20.53-10.19,37.36-18.92,37.36-19.4
		c0-0.64-7.58-8.49-16.76-17.61c-16.76-16.49-16.92-16.65-20.61-14.07c-22.91,16.78-26.28,17.76-70.29,18.86
		c-19.92,0.55-37.26,1.73-38.54,2.7c-1.28,0.81-17.95,12.91-37.02,26.95C48.19,78.65,34.09,90.11,33.62,92.03
		C31.87,98.95,36.39,104.72,43.46,104.69z"/>
	<path class="st2" d="M172.7,155.08c0-22.35-18.11-40.46-40.46-40.46c-10.19,0-19.49,3.77-26.6,9.99c-0.61,0.57-1.22,1.17-1.84,1.8
		c-1.66,1.7-3.1,3.34-4.35,4.99c-4.05,5.6-6.71,12.26-7.45,19.5c-0.22,2.97-0.17,6.24,0.12,9.33c2.53,19.89,19.49,35.28,40.07,35.31
		c0.03,0,0.06,0,0.09,0C154.61,195.52,172.7,177.41,172.7,155.08z M141.88,183.45c-0.21,3.66-0.76,6.55-1.17,6.83
		c-1.59,0.97-9.31,1.38-13.38,0.69c-8.28-1.31-13.66-3.86-19.38-9.11c-11.86-10.83-15.31-27.52-8.62-41.73
		c2.55-5.52,5.45-9.31,6.83-9.04c0.83,0.14,1.17,1.31,1.45,4.76c0.34,4.14,0.62,4.9,3.79,9.11c3.59,4.69,4.97,5.79,4.21,3.04
		c-1.59-5.17,0.14-4.9,2.9,0.55c2.14,4,2.62,4.48,5.66,5.52c1.86,0.62,3.52,1.59,3.72,2.14c0.21,0.48,1.1,0.97,2.07,0.97
		c0.97,0,2.07,0.69,2.76,1.72c0.62,0.97,1.72,1.72,2.48,1.72c1.86,0,2.28,1.03,1.31,3.66c-1.24,3.52-0.34,6.69,2.97,10l2.83,2.9
		L141.88,183.45z M150.71,186.55l-3.45,1.93l3.93-3.79c2.62-2.41,4.14-4.48,4.41-5.93c0.28-1.45,0.9-2.28,2-2.55
		c2.69-0.69,5.86-4.21,5.86-6.48c0-2.21-2.14-4.48-5.04-5.38c-0.83-0.28-2.55-1.52-3.79-2.76c-3.1-3.17-9.04-4.97-12.9-3.79
		c-4.76,1.45-5.45,1.31-5.86-0.97c-0.21-1.24-0.97-2.35-1.93-2.76c-0.9-0.41-1.52-1.31-1.52-2.21c0-2.07-1.17-2.62-3.24-1.52
		c-1.59,0.83-1.86,0.76-3.04-0.69c-1.66-2.07-1.66-3.17,0.07-4.9c0.97-0.97,2.28-1.38,4.41-1.38c2.83,0,3.04,0.14,3.45,2.14
		c0.62,3.04,2.48,2.41,3.45-1.17c1.24-4.76,4.55-7.86,8.35-7.86c1.66,0,1.79-0.21,1.45-1.66c-0.55-2.14,0.9-3.1,2.07-1.45
		c1.17,1.59,3.04,0.83,3.04-1.24c0-1.86-0.97-2.83-6.14-5.93c-4.41-2.69-7.86-2.76-8.21-0.21c-0.28,1.86-1.93,2.76-3.1,1.59
		c-0.41-0.41-1.66-0.76-2.69-0.76c-1.72,0-1.93-0.28-1.93-2.07c0-1.86,0.41-2.28,2.97-3.45c3.66-1.59,3.86-1.66,5.45-0.21
		c1.1,0.97,1.59,1.03,3.66,0.28c2.21-0.76,2.76-0.69,6.21,1.1c22.76,11.59,27.25,41.25,8.97,58.98
		C155.74,183.24,152.64,185.52,150.71,186.55z"/>
</g>
</svg>
